# xmcd
#
# Track frame offsets:
#       150
#       7952
#       24248
#       41278
#       52619
#       69707
#       84137
#       96313
#       110555
#       127849
#       140846
#       156484
#       163399
#       173485
#       189437
#       206748
#       225222
#       250215
#       261588
#
# Disc length: 3518 seconds
#
# Revision: 2
# Processed by: cddbd v1.5.2PL0 Copyright (c) Steve Scherf et al.
# Submitted via: FreeDbEdit v0.1
#
DISCID=f50dbc13
DTITLE=The Stanley Brothers - Folk Festival [CD2]
DYEAR=2001
DGENRE=Bluegrass
TTITLE0=Theme
TTITLE1=Sally Goodin'
TTITLE2=Long Journey Home
TTITLE3=East Virginia Blues
TTITLE4=Big Tilda
TTITLE5=Dream of a Miner's Child
TTITLE6=Angel Band
TTITLE7=This Wicked Path of Sin
TTITLE8=Little Bride
TTITLE9=How Far to Little Rock
TTITLE10=Rabbit in a Log
TTITLE11=How the Mountain Girls Can Love
TTITLE12=Cacklin' Hen
TTITLE13=When You and I Were Young, Maggie
TTITLE14=Don't Go Out Tonight
TTITLE15=Sharecropper's Son
TTITLE16=I'm a Man of Constant Sorrow
TTITLE17=Single Girl, Married Girl
TTITLE18=Shoutin' on the Hills of Glory
EXTD=University of Chicago Folk Festival, 1961 and 1965.
EXTT0=
EXTT1=
EXTT2=
EXTT3=
EXTT4=
EXTT5=
EXTT6=
EXTT7=
EXTT8=
EXTT9=
EXTT10=
EXTT11=
EXTT12=
EXTT13=
EXTT14=
EXTT15=
EXTT16=
EXTT17=
EXTT18=
PLAYORDER=
